<svg enable-background="new 0 0 64 64" viewBox="0 0 64 64" xmlns="http://www.w3.org/2000/svg"><circle cx="32" cy="32" fill="#c75c5c" r="32"/><path d="m50 27c-.1 0-.2 0-.3 0l-34-9c-.5-.1-.9-.7-.7-1.2.1-.5.7-.9 1.2-.7l34 9c.5.1.9.7.7 1.2-.1.4-.5.7-.9.7z" fill="#231f20" opacity=".2"/><path d="m50 24-34-9" fill="none" stroke="#e0e0d1" stroke-linecap="round" stroke-miterlimit="10" stroke-width="2"/><path d="m52 47c0 1.1-.9 2-2 2h-36c-1.1 0-2-.9-2-2v-20c0-1.1.9-2 2-2h36c1.1 0 2 .9 2 2z" fill="#231f20" opacity=".2"/><path d="m52 45c0 1.1-.9 2-2 2h-36c-1.1 0-2-.9-2-2v-20c0-1.1.9-2 2-2h36c1.1 0 2 .9 2 2z" fill="#f5cf87"/><circle cx="24" cy="35" fill="#4f5d73" r="8"/><g fill="#231f20"><path d="m24 29c4.1 0 7.4 3.1 7.9 7 0-.3.1-.7.1-1 0-4.4-3.6-8-8-8s-8 3.6-8 8c0 .3 0 .7.1 1 .5-3.9 3.8-7 7.9-7z" opacity=".2"/><circle cx="36.5" cy="42.5" opacity=".2" r="1.5"/><circle cx="41.5" cy="42.5" opacity=".2" r="1.5"/><circle cx="46.5" cy="42.5" opacity=".2" r="1.5"/></g><circle cx="36.5" cy="41.5" fill="#4f5d73" r="1.5"/><circle cx="41.5" cy="41.5" fill="#4f5d73" r="1.5"/><circle cx="46.5" cy="41.5" fill="#4f5d73" r="1.5"/><path d="m48 35c0 1.1-.9 2-2 2h-9c-1.1 0-2-.9-2-2v-5c0-1.1.9-2 2-2h9c1.1 0 2 .9 2 2z" fill="#fff"/><path d="m46 28h-9c-1.1 0-2 .9-2 2v2c0-1.1.9-2 2-2h9c1.1 0 2 .9 2 2v-2c0-1.1-.9-2-2-2z" fill="#231f20" opacity=".2"/></svg>